<?xml version="1.0" encoding="UTF-8"?>
<svg version="1.1" xmlns="http://www.w3.org/2000/svg" width="397" height="94">
<path d="M0 0 C131.01 0 262.02 0 397 0 C397 31.02 397 62.04 397 94 C265.99 94 134.98 94 0 94 C0 62.98 0 31.96 0 0 Z " fill="#FDFDFC" transform="translate(0,0)"/>
<path d="M0 0 C4.616214 2.32306234 7.29821212 5.54858993 8.93359375 10.34765625 C9.84225313 15.68603012 8.78148475 19.77068857 5.93359375 24.34765625 C5.21171875 25.15203125 4.48984375 25.95640625 3.74609375 26.78515625 C1.29899243 30.24485122 1.26625304 32.19531406 1.93359375 36.34765625 C3.78700709 39.45116074 3.78700709 39.45116074 6.93359375 41.34765625 C10.99975253 42.06907152 13.26079173 42.27887195 16.86328125 40.2734375 C22.21689177 36.08015888 24.66433852 30.94214544 26.88671875 24.6484375 C27.2115625 23.74480469 27.53640625 22.84117188 27.87109375 21.91015625 C28.14824219 21.06582031 28.42539063 20.22148438 28.7109375 19.3515625 C29.93359375 17.34765625 29.93359375 17.34765625 32.4375 16.4375 C33.26121094 16.40785156 34.08492188 16.37820312 34.93359375 16.34765625 C36.93359375 18.34765625 36.93359375 18.34765625 37.30859375 21.28515625 C36.89624091 32.95231598 29.75592359 41.83450595 21.74609375 49.59765625 C14.18291566 56.09705972 4.61294084 59.4858184 -5.31567383 59.46118164 C-6.33635452 59.46110611 -7.35703522 59.46103058 -8.40864563 59.46095276 C-10.04328011 59.45321083 -10.04328011 59.45321083 -11.7109375 59.4453125 C-12.83586105 59.44389755 -13.96078461 59.4424826 -15.11979675 59.44102478 C-18.70619384 59.43543556 -22.29252809 59.42288497 -25.87890625 59.41015625 C-28.31315014 59.40513986 -30.74739501 59.40057719 -33.18164062 59.39648438 C-39.14325054 59.38546965 -45.10482391 59.36874219 -51.06640625 59.34765625 C-51.11575281 53.54526011 -51.15210027 47.74298544 -51.17626953 41.94042969 C-51.18634252 39.96547316 -51.20000146 37.99053159 -51.21728516 36.015625 C-51.24147664 33.18095207 -51.25287616 30.34647587 -51.26171875 27.51171875 C-51.27204132 26.62521637 -51.28236389 25.73871399 -51.29299927 24.8253479 C-51.29339695 22.66479673 -51.18913159 20.50471907 -51.06640625 18.34765625 C-49.06640625 16.34765625 -49.06640625 16.34765625 -46.44140625 16.22265625 C-45.65765625 16.26390625 -44.87390625 16.30515625 -44.06640625 16.34765625 C-43.65390625 17.29640625 -43.24140625 18.24515625 -42.81640625 19.22265625 C-42.53796875 19.86074219 -42.25953125 20.49882813 -41.97265625 21.15625 C-41.34552304 22.67272299 -40.76488372 24.20894977 -40.22265625 25.7578125 C-38.04013033 31.84442574 -35.46151811 37.48799533 -30.06640625 41.34765625 C-25.76173628 42.31459543 -22.20525377 41.72727209 -18.06640625 40.34765625 C-15.62522005 37.38335872 -15.06640625 35.77917474 -15.06640625 31.91015625 C-16.30187422 27.50880162 -18.01692281 25.70208804 -21.06640625 22.34765625 C-22.62049443 17.68539172 -22.79145681 13.20617262 -22.06640625 8.34765625 C-17.46489421 -0.12092454 -9.10718652 -2.87504754 0 0 Z " fill="#EF6936" transform="translate(51.06640625,34.65234375)"/>
<path d="M0 0 C5.218125 -0.061875 10.43625 -0.12375 15.8125 -0.1875 C17.45581299 -0.21481201 19.09912598 -0.24212402 20.79223633 -0.27026367 C22.08411865 -0.27775635 23.37600098 -0.28524902 24.70703125 -0.29296875 C25.38262085 -0.30831665 26.05821045 -0.32366455 26.75427246 -0.33947754 C31.55924637 -0.34216038 31.55924637 -0.34216038 33.95581055 1.51831055 C34.30039307 2.00726807 34.64497559 2.49622559 35 3 C34.33355469 3.1959375 33.66710938 3.391875 32.98046875 3.59375 C21.03989915 7.46817258 12.14448019 13.94661443 6 25 C3.37551497 30.29583586 1.36586544 34.97572169 2 41 C2.78375 41.103125 3.5675 41.20625 4.375 41.3125 C7 42 7 42 9 45 C9.99 45.33 10.98 45.66 12 46 C12 45.34 12 44.68 12 44 C13.98 43.505 13.98 43.505 16 43 C16.33 43.99 16.66 44.98 17 46 C18.485 46.495 18.485 46.495 20 47 C20.04125 45.700625 20.0825 44.40125 20.125 43.0625 C20.90873981 36.05299605 24.85368244 30.66407199 30.0625 26.0625 C34.61301341 22.86745867 38.52070809 21.76455236 44 21 C44 19.35 44 17.7 44 16 C48.66128288 18.64559299 48.66128288 18.64559299 50.43359375 20.5 C52.14371824 22.13762544 53.57160718 22.79435894 55.75 23.6875 C61.35842713 26.3778894 65.37288742 30.81000297 68.1875 36.328125 C69.18174379 39.59765747 69.19391529 42.40119308 69.125 45.8125 C69.10695313 46.97394531 69.08890625 48.13539062 69.0703125 49.33203125 C69.04710938 50.21246094 69.02390625 51.09289063 69 52 C69.99 51.67 70.98 51.34 72 51 C72.33 45.72 72.66 40.44 73 35 C74.32 35.66 75.64 36.32 77 37 C77.609375 39.1640625 77.609375 39.1640625 77.75 41.625 C77.80671875 42.44226562 77.8634375 43.25953125 77.921875 44.1015625 C77.94765625 44.72804687 77.9734375 45.35453125 78 46 C79.485 46.495 79.485 46.495 81 47 C81.33 45.68 81.66 44.36 82 43 C82 44.65 82 46.3 82 48 C80.68 48 79.36 48 78 48 C78.37125 48.639375 78.7425 49.27875 79.125 49.9375 C80.87810687 56.07337403 78.28566637 62.60088203 75.3203125 68.0703125 C72.45155258 72.26311546 68.91232272 76.21158114 63.87890625 77.57421875 C60.24663363 77.77334145 58.10629966 77.06785085 55.0625 75.125 C52.51322868 72.49847803 52.07281699 71.52012137 51.5625 67.875 C52.08819454 63.21884832 53.63316214 61.29177052 56.58984375 57.796875 C59.15155995 54.53263829 59.34464617 51.18948565 59.27734375 47.12890625 C58.77583226 43.2792758 57.32946857 41.12639203 55 38 C50.13750977 34.41101911 44.83956607 34.13593413 39 35 C34.98775068 37.04259965 32.37324811 39.19602232 30 43 C29.12345323 48.15662201 29.21016663 53.31335379 31.8125 57.9375 C33.84025778 60.90127219 33.84025778 60.90127219 35.8125 63 C37.70167563 66.18176948 36.87013577 68.51945692 36 72 C34.17375749 75.15441888 33.51414502 75.82861833 30 77 C26.82003708 77.66484432 24.16975043 77.77961499 21 77 C14.53509367 72.19101705 11.40511952 65.48118755 9 58 C8.5875 56.80375 8.175 55.6075 7.75 54.375 C7.5025 53.59125 7.255 52.8075 7 52 C3.37114676 51.84850702 3.37114676 51.84850702 0 53 C0 35.51 0 18.02 0 0 Z " fill="#FCFAF9" transform="translate(0,0)"/>
<path d="M0 0 C12.74353103 3.34256552 21.18979518 10.86665045 28 22 C30.67405219 26.65248946 31.33015836 30.60741344 31 36 C29.33388095 36.042721 27.66617115 36.04063832 26 36 C25.67 35.67 25.34 35.34 25 35 C24.67 37.97 24.34 40.94 24 44 C22.02 43.505 22.02 43.505 20 43 C19.95101562 42.36191406 19.90203125 41.72382812 19.8515625 41.06640625 C19.77679688 40.24011719 19.70203125 39.41382813 19.625 38.5625 C19.55539063 37.73878906 19.48578125 36.91507813 19.4140625 36.06640625 C19.20910156 35.04353516 19.20910156 35.04353516 19 34 C18.34 33.67 17.68 33.34 17 33 C16.67 37.95 16.34 42.9 16 48 C14.02 48.495 14.02 48.495 12 49 C11.97421875 48.154375 11.9484375 47.30875 11.921875 46.4375 C11.47350455 37.4700911 10.51751891 30.97673543 3.75 24.75 C0.6477 22.28150323 -2.61335343 20.60246968 -6.19921875 18.9453125 C-8.58628311 17.69223316 -10.25563403 16.03509364 -12 14 C-12.33 15.65 -12.66 17.3 -13 19 C-14.7634375 19.37125 -14.7634375 19.37125 -16.5625 19.75 C-24.96963842 21.91480107 -29.46492182 25.74678202 -34 33 C-35.79689675 36.59379351 -36.44589731 40.02893072 -37 44 C-38.32 43.67 -39.64 43.34 -41 43 C-41 42.01 -41 41.02 -41 40 C-42.98 40.495 -42.98 40.495 -45 41 C-45 41.66 -45 42.32 -45 43 C-45.99 43 -46.98 43 -48 43 C-48.61864481 33.25634426 -45.72867827 26.45855306 -39.69140625 18.84765625 C-34.04264961 12.67707452 -26.37669255 7.55926154 -17.92993164 6.68066406 C-14.59028834 6.60802527 -11.27631384 6.64981632 -7.9375 6.75 C-6.20983398 6.77707031 -6.20983398 6.77707031 -4.44726562 6.8046875 C-1.63062166 6.85143678 1.18423229 6.91694843 4 7 C4 6.34 4 5.68 4 5 C1.525 4.01 1.525 4.01 -1 3 C-0.67 2.01 -0.34 1.02 0 0 Z " fill="#FBF7F4" transform="translate(57,3)"/>
<path d="M0 0 C4.00125 -0.0825 8.0025 -0.165 12.125 -0.25 C13.37555176 -0.28641602 14.62610352 -0.32283203 15.91455078 -0.36035156 C22.24872501 -0.42362187 26.21970777 -0.33369053 31 4 C32 5 32 5 32.375 7.8125 C32 11 32 11 29.625 13.3125 C27 15 27 15 25 16 C25.54269531 16.24234375 26.08539063 16.4846875 26.64453125 16.734375 C34.32296102 20.33147724 34.32296102 20.33147724 36 24 C36.54500097 28.99584223 36.09938694 32.01507393 33 36 C24.01733302 43.58326202 10.81986146 41 0 41 C0 27.47 0 13.94 0 0 Z " fill="#E84838" transform="translate(249,22)"/>
<path d="M0 0 C0.33 1.32 0.66 2.64 1 4 C1.495 3.34 1.99 2.68 2.5 2 C5.36483327 -0.29186662 7.31489049 -0.63540231 10.96484375 -0.46484375 C14.58751644 0.36259972 16.4316377 2.36899472 19 5 C20.45500399 7.91000797 20.20897384 10.5089333 20.25 13.75 C20.27578125 14.96171875 20.3015625 16.1734375 20.328125 17.421875 C19.86508512 22.47121464 18.21531194 25.71717073 14.75 29.375 C11.18996152 31.4786591 9.07185364 31.59226962 5 31 C3.68 29.68 2.36 28.36 1 27 C0.67 31.62 0.34 36.24 0 41 C-3.3 41 -6.6 41 -10 41 C-10.33 27.8 -10.66 14.6 -11 1 C-4 0 -4 0 0 0 Z " fill="#080808" transform="translate(156,32)"/>
<path d="M0 0 C4.616214 2.32306234 7.29821212 5.54858993 8.93359375 10.34765625 C9.84225313 15.68603012 8.78148475 19.77068857 5.93359375 24.34765625 C4.85078125 25.55421875 4.85078125 25.55421875 3.74609375 26.78515625 C1.27537286 30.27824441 1.28114118 32.1429619 1.93359375 36.34765625 C3.09575801 38.37440639 4.37321464 40.14785324 5.83984375 41.96484375 C6.93359375 43.34765625 6.93359375 43.34765625 6.93359375 44.34765625 C3.68359375 45.16015625 3.68359375 45.16015625 -0.06640625 45.34765625 C-2.44140625 42.91015625 -2.44140625 42.91015625 -4.06640625 40.34765625 C-4.39640625 40.34765625 -4.72640625 40.34765625 -5.06640625 40.34765625 C-5.39640625 34.73765625 -5.72640625 29.12765625 -6.06640625 23.34765625 C-4.74640625 22.68765625 -3.42640625 22.02765625 -2.06640625 21.34765625 C-0.54148627 18.29781629 -0.83078077 15.70531935 -1.06640625 12.34765625 C-1.96398181 10.19985548 -1.96398181 10.19985548 -4.06640625 9.34765625 C-9.11205627 9.53903109 -9.11205627 9.53903109 -13.06640625 12.34765625 C-13.65055327 15.72072243 -13.65055327 15.72072243 -13.06640625 19.34765625 C-12.22078125 20.04890625 -11.37515625 20.75015625 -10.50390625 21.47265625 C-7.4088194 25.12327151 -7.87085346 26.49800061 -8.25390625 31.16015625 C-8.49922133 33.2258468 -8.76210082 35.28982847 -9.06640625 37.34765625 C-10.94140625 37.11328125 -10.94140625 37.11328125 -13.06640625 36.34765625 C-14.19140625 34.45703125 -14.19140625 34.45703125 -15.06640625 32.09765625 C-16.60099165 28.27635663 -18.37875042 25.49870102 -21.06640625 22.34765625 C-22.62049443 17.68539172 -22.79145681 13.20617262 -22.06640625 8.34765625 C-17.46489421 -0.12092454 -9.10718652 -2.87504754 0 0 Z " fill="#E22B51" transform="translate(51.06640625,34.65234375)"/>
<path d="M0 0 C3.3 0 6.6 0 10 0 C14.54616178 9.51624219 18.82157871 19.12149021 22.89038086 28.85229492 C23.25139893 29.70799072 23.61241699 30.56368652 23.984375 31.4453125 C24.30116211 32.20344238 24.61794922 32.96157227 24.94433594 33.74267578 C26.1182972 36.25295466 27.57421677 38.62369462 29 41 C24.05 41 19.1 41 14 41 C13.8046875 39.11197917 13.609375 37.22395833 13.4140625 35.3359375 C12.94105603 32.33718878 12.94105603 32.33718878 11 27 C5.72 27.33 0.44 27.66 -5 28 C-7.13290367 32.97677524 -8.38170447 35.92997663 -9 41 C-10.98 41 -12.96 41 -15 41 C-14.5875 40.06542969 -14.175 39.13085938 -13.75 38.16796875 C-12.17771603 34.59798634 -10.62024101 31.02168138 -9.06591797 27.44384766 C-8.34257803 25.78543429 -7.6148893 24.12891226 -6.88330078 22.47412109 C-5.7660526 19.94545951 -4.66322814 17.41088923 -3.5625 14.875 C-3.20865234 14.08246826 -2.85480469 13.28993652 -2.49023438 12.47338867 C-0.62545824 8.13686099 0.43890517 4.82025676 0 0 Z " fill="#080808" transform="translate(113,22)"/>
<path d="M0 0 C0 6.93 0 13.86 0 21 C1.44375 19.845 2.8875 18.69 4.375 17.5 C8.75 14 8.75 14 11 14 C11 12.68 11 11.36 11 10 C13.97 10 16.94 10 20 10 C17.4837822 12.60608273 14.94865641 14.89381685 12 17 C13.46601374 21.9248899 15.5517795 26.20353093 18 30.6875 C18.35578125 31.35072266 18.7115625 32.01394531 19.078125 32.69726562 C20.61896548 35.5518451 22.19941688 38.29912532 24 41 C15.15879828 41.77253219 15.15879828 41.77253219 11.1875 39.125 C4 28.85714286 4 28.85714286 4 24 C3.01 24.66 2.02 25.32 1 26 C0.61588725 28.609621 0.39706803 31.0058074 0.3125 33.625 C0.27833984 34.33140625 0.24417969 35.0378125 0.20898438 35.765625 C0.12648692 37.50985688 0.06156665 39.25490395 0 41 C-3.63 41 -7.26 41 -11 41 C-10.99476318 39.85934082 -10.98952637 38.71868164 -10.98413086 37.54345703 C-10.96606131 33.32048321 -10.95456081 29.09751282 -10.94506836 24.87451172 C-10.94003263 23.04507879 -10.93320373 21.21564991 -10.92456055 19.38623047 C-10.91246176 16.76008102 -10.90676417 14.13398468 -10.90234375 11.5078125 C-10.89718246 10.68693146 -10.89202118 9.86605042 -10.88670349 9.02029419 C-10.77648126 4.87788156 -10.77648126 4.87788156 -12 1 C-10.37512529 0.83211627 -8.75009558 0.66573213 -7.125 0.5 C-6.22007812 0.4071875 -5.31515625 0.314375 -4.3828125 0.21875 C-2 0 -2 0 0 0 Z " fill="#E94F39" transform="translate(367,21)"/>
<path d="M0 0 C10.23 0 20.46 0 31 0 C31 1.65 31 3.3 31 5 C29.02 4.67 27.04 4.34 25 4 C25 4.66 25 5.32 25 6 C26.32 6.66 27.64 7.32 29 8 C29 8.66 29 9.32 29 10 C25.20137 10.67064087 21.72625494 11.06959218 17.87109375 10.8515625 C5.84965969 10.18273117 -2.86710143 11.84588682 -12.27734375 19.96484375 C-19.17969248 27.33415899 -21.6247651 35.15621336 -23 45 C-24.65 44.01 -26.3 43.02 -28 42 C-28.33 42.66 -28.66 43.32 -29 44 C-31.30942532 40.53586202 -31.23075808 38.71000536 -30.6640625 34.6640625 C-27.47477871 21.86940635 -19.56979254 13.1733679 -8.6484375 6.4453125 C-6 5 -6 5 -3.2265625 3.9921875 C-2.49179687 3.66476562 -1.75703125 3.33734375 -1 3 C-0.67 2.01 -0.34 1.02 0 0 Z " fill="#FDFAF9" transform="translate(32,0)"/>
<path d="M0 0 C1.29550781 -0.02835938 2.59101563 -0.05671875 3.92578125 -0.0859375 C9.09759044 0.54778367 12.06338727 2.75088727 15.6875 6.375 C15.91455078 8.80517578 15.91455078 8.80517578 15.8828125 11.8203125 C15.87636719 12.89667969 15.86992187 13.97304688 15.86328125 15.08203125 C15.84652344 16.20996094 15.82976562 17.33789062 15.8125 18.5 C15.80347656 19.63566406 15.79445313 20.77132812 15.78515625 21.94140625 C15.76153098 24.75281299 15.72859013 27.56380298 15.6875 30.375 C10.7375 30.87 10.7375 30.87 5.6875 31.375 C5.1925 28.9 5.1925 28.9 4.6875 26.375 C4.089375 27.014375 3.49125 27.65375 2.875 28.3125 C-0.5345969 31.52726279 -3.76114113 31.73341991 -8.3671875 31.6484375 C-10.3125 31.375 -10.3125 31.375 -12.875 29.8125 C-14.3125 27.375 -14.3125 27.375 -14.375 23.875 C-13.09223549 19.64942281 -12.00269584 18.70879953 -8.3125 16.375 C-4.76171875 15.765625 -4.76171875 15.765625 -1 15.625 C0.25425781 15.56828125 1.50851562 15.5115625 2.80078125 15.453125 C4.22970703 15.41445313 4.22970703 15.41445313 5.6875 15.375 C5.6875 13.395 5.6875 11.415 5.6875 9.375 C2.7543642 8.39728807 0.80571006 8.24080989 -2.25 8.25 C-3.10464844 8.24742188 -3.95929688 8.24484375 -4.83984375 8.2421875 C-7.13930852 8.36569746 -9.10890348 8.73079313 -11.3125 9.375 C-11 6 -11 6 -10.3125 2.375 C-6.5819077 -0.11206153 -4.45174196 0.04403306 0 0 Z " fill="#E94B35" transform="translate(301.3125,31.625)"/>
<path d="M0 0 C3.91004187 2.63927826 3.91004187 2.63927826 5.5 4.6875 C5.84057617 7.32299805 5.84057617 7.32299805 5.79296875 10.44921875 C5.78330078 11.56748047 5.77363281 12.68574219 5.76367188 13.83789062 C5.73853516 15.00513672 5.71339844 16.17238281 5.6875 17.375 C5.66719727 19.14327148 5.66719727 19.14327148 5.64648438 20.94726562 C5.61109326 23.86113411 5.56171809 26.77408945 5.5 29.6875 C2.2 29.6875 -1.1 29.6875 -4.5 29.6875 C-4.995 27.2125 -4.995 27.2125 -5.5 24.6875 C-6.098125 25.326875 -6.69625 25.96625 -7.3125 26.625 C-10.7220969 29.83976279 -13.94864113 30.04591991 -18.5546875 29.9609375 C-20.5 29.6875 -20.5 29.6875 -23.0625 28.125 C-24.5 25.6875 -24.5 25.6875 -24.5625 22.1875 C-23.27973549 17.96192281 -22.19019584 17.02129953 -18.5 14.6875 C-14.94921875 14.078125 -14.94921875 14.078125 -11.1875 13.9375 C-9.93324219 13.88078125 -8.67898437 13.8240625 -7.38671875 13.765625 C-5.95779297 13.72695313 -5.95779297 13.72695313 -4.5 13.6875 C-4.84227572 10.71684491 -4.84227572 10.71684491 -5.5 7.6875 C-7.96009963 6.45745019 -9.63172806 6.55435973 -12.375 6.5625 C-13.23867187 6.55992188 -14.10234375 6.55734375 -14.9921875 6.5546875 C-17.30665971 6.67726079 -19.28289116 7.03783555 -21.5 7.6875 C-21.17 5.3775 -20.84 3.0675 -20.5 0.6875 C-13.92582073 -2.15538833 -6.69785997 -2.51169749 0 0 Z " fill="#050505" transform="translate(237.5,32.3125)"/>
<path d="M0 0 C0.33 1.65 0.66 3.3 1 5 C1.680625 4.175 2.36125 3.35 3.0625 2.5 C6 0 6 0 9.5 -0.5625 C13.57804647 0.09290033 15.17832078 1.01708197 18 4 C19.68348489 7.50571854 20.27826199 10.43046677 20.4140625 14.30078125 C20.45273437 15.27724609 20.49140625 16.25371094 20.53125 17.25976562 C20.5621875 18.26716797 20.593125 19.27457031 20.625 20.3125 C20.66367187 21.33923828 20.70234375 22.36597656 20.7421875 23.42382812 C20.83614489 25.94893309 20.91914808 28.47444144 21 31 C17.04 31 13.08 31 9 31 C9.01160156 29.50726563 9.02320313 28.01453125 9.03515625 26.4765625 C9.04453375 24.52604291 9.05363399 22.57552198 9.0625 20.625 C9.07087891 19.64015625 9.07925781 18.6553125 9.08789062 17.640625 C9.09111328 16.69960938 9.09433594 15.75859375 9.09765625 14.7890625 C9.10289307 13.91975098 9.10812988 13.05043945 9.11352539 12.15478516 C9.14122351 9.94950006 9.14122351 9.94950006 8 8 C5.58354218 7.83312552 5.58354218 7.83312552 3 8 C0.79404891 9.78654061 0.79404891 9.78654061 0.77294922 12.15478516 C0.78342285 13.02409668 0.79389648 13.8934082 0.8046875 14.7890625 C0.81113281 15.73007812 0.81757813 16.67109375 0.82421875 17.640625 C0.84097656 18.62546875 0.85773438 19.6103125 0.875 20.625 C0.88853516 22.11386719 0.88853516 22.11386719 0.90234375 23.6328125 C0.92595751 26.08864388 0.9618293 28.54435174 1 31 C-2.63 31 -6.26 31 -10 31 C-10.33 21.1 -10.66 11.2 -11 1 C-1 0 -1 0 0 0 Z " fill="#EA5237" transform="translate(331,32)"/>
<path d="M0 0 C0.33 1.65 0.66 3.3 1 5 C1.639375 4.154375 2.27875 3.30875 2.9375 2.4375 C6.18629942 -0.14827913 6.67182621 -0.3882304 10.5625 -0.125 C13.98193911 0.46671659 14.88803675 0.89363491 17.5 3.375 C19.60686129 7.06200727 20.14742461 9.92920829 20.31640625 14.10546875 C20.35830078 15.08837891 20.40019531 16.07128906 20.44335938 17.08398438 C20.48267578 18.10814453 20.52199219 19.13230469 20.5625 20.1875 C20.60568359 21.22326172 20.64886719 22.25902344 20.69335938 23.32617188 C20.79944263 25.88395702 20.90022586 28.44196098 21 31 C17.04 31 13.08 31 9 31 C9.01160156 29.50726563 9.02320313 28.01453125 9.03515625 26.4765625 C9.04453375 24.52604291 9.05363399 22.57552198 9.0625 20.625 C9.07087891 19.64015625 9.07925781 18.6553125 9.08789062 17.640625 C9.09111328 16.69960938 9.09433594 15.75859375 9.09765625 14.7890625 C9.10289307 13.91975098 9.10812988 13.05043945 9.11352539 12.15478516 C9.14122351 9.94950006 9.14122351 9.94950006 8 8 C6.02 8 4.04 8 2 8 C0.7736243 10.45275141 0.88584686 12.0505781 0.90234375 14.7890625 C0.90556641 15.73007812 0.90878906 16.67109375 0.91210938 17.640625 C0.92048828 18.62546875 0.92886719 19.6103125 0.9375 20.625 C0.94201172 21.61757813 0.94652344 22.61015625 0.95117188 23.6328125 C0.96297839 26.08856722 0.98091418 28.54429106 1 31 C-2.63 31 -6.26 31 -10 31 C-10 21.43 -10 11.86 -10 2 C-1 0 -1 0 0 0 Z " fill="#050505" transform="translate(190,31)"/>
<path d="M0 0 C-0.33 1.65 -0.66 3.3 -1 5 C-3.64 4.34 -6.28 3.68 -9 3 C-9.33 3.66 -9.66 4.32 -10 5 C-11.32 3.68 -12.64 2.36 -14 1 C-14.33 2.65 -14.66 4.3 -15 6 C-16.175625 6.2475 -17.35125 6.495 -18.5625 6.75 C-26.96963842 8.91480107 -31.46492182 12.74678202 -36 20 C-37.79689675 23.59379351 -38.44589731 27.02893072 -39 31 C-40.32 30.67 -41.64 30.34 -43 30 C-43 29.01 -43 28.02 -43 27 C-43.99 27.33 -44.98 27.66 -46 28 C-45.96228918 19.13795805 -43.29797369 12.78008529 -37.36328125 6.1796875 C-26.75593314 -3.66116226 -13.10462437 -5.31781858 0 0 Z " fill="#FBF1EE" transform="translate(59,16)"/>
<path d="M0 0 C2.21652218 2.21652218 2.67494633 3.63479958 3.6875 6.5625 C8.07731716 17.78812101 16.31228919 25.09148397 27.03515625 30.1875 C29.97268027 31.40222166 32.91735285 32.22933821 36 33 C36 33.33 36 33.66 36 34 C24.12 34 12.24 34 0 34 C0 22.78 0 11.56 0 0 Z " fill="#FDFBF9" transform="translate(0,60)"/>
<path d="M0 0 C0 2.31 0 4.62 0 7 C0.66 7 1.32 7 2 7 C2.12818318 18.37981825 1.79568202 29.64732258 1 41 C-2.3 41 -5.6 41 -9 41 C-9.33 27.8 -9.66 14.6 -10 1 C-3 0 -3 0 0 0 Z " fill="#010101" transform="translate(155,32)"/>
<path d="M0 0 C0.78375 0.04125 1.5675 0.0825 2.375 0.125 C2.7875 1.07375 3.2 2.0225 3.625 3 C3.9034375 3.63808594 4.181875 4.27617188 4.46875 4.93359375 C5.09588321 6.45006674 5.67652253 7.98629352 6.21875 9.53515625 C8.43408958 15.71327998 11.14713782 20.97091034 16.375 25.125 C18.91115081 26.02794864 20.64131246 26.125 23.375 26.125 C22.385 26.681875 22.385 26.681875 21.375 27.25 C20.715 27.86875 20.055 28.4875 19.375 29.125 C19.33419217 31.12458364 19.33245644 33.12545254 19.375 35.125 C18.385 35.785 17.395 36.445 16.375 37.125 C5.89209627 29.73229465 -0.77365692 21.50431703 -4.625 9.125 C-5.06506935 6.48458389 -5.0329796 4.80600878 -4.625 2.125 C-2.625 0.125 -2.625 0.125 0 0 Z " fill="#EF6D36" transform="translate(4.625,50.875)"/>
<path d="M0 0 C4.55555556 0.55555556 4.55555556 0.55555556 6 2 C6.92959668 10.55228949 3.51694373 18.29973 -1.375 25.1875 C-4.44047274 28.90844099 -4.44047274 28.90844099 -8.4375 29.5625 C-9.283125 29.376875 -10.12875 29.19125 -11 29 C-12.375 26.4375 -12.375 26.4375 -13 23 C-11.62042669 21.38488978 -10.22215937 19.78170274 -8.73046875 18.26953125 C-5.73872984 14.34582853 -4.56018342 9.66044201 -3.078125 5.01171875 C-2 2 -2 2 0 0 Z " fill="#E84849" transform="translate(82,51)"/>
<path d="M0 0 C9.17647059 0 9.17647059 0 14 4 C15.60086627 7.20173254 15.49917089 10.52577059 15 14 C13.20636089 16.8100346 11.98119065 18.50940468 9 20 C6.03 20 3.06 20 0 20 C0 13.4 0 6.8 0 0 Z " fill="#FDF7F6" transform="translate(260,40)"/>
<path d="M0 0 C0.75587402 -0.01853027 1.51174805 -0.03706055 2.29052734 -0.05615234 C8.11325016 0.00844606 11.89432958 1.61491726 16.9375 4.5 C16.9375 5.49 16.9375 6.48 16.9375 7.5 C14.10678723 6.98532495 11.48590682 6.34946894 8.75 5.4375 C-1.15555769 3.00170712 -9.45559674 4.84851633 -18.32421875 9.75 C-27.0570338 15.60514457 -30.43696643 24.27773764 -32.6171875 34.2265625 C-32.76414062 34.97679687 -32.91109375 35.72703125 -33.0625 36.5 C-34.0525 36.5 -35.0425 36.5 -36.0625 36.5 C-36.68114481 26.75634426 -33.79117827 19.95855306 -27.75390625 12.34765625 C-24.8556228 9.18163299 -21.68625704 6.78087501 -18.0625 4.5 C-17.44246094 4.08492187 -16.82242187 3.66984375 -16.18359375 3.2421875 C-10.98042189 0.33004043 -5.83640428 0.08906009 0 0 Z " fill="#E43A58" transform="translate(45.0625,9.5)"/>
<path d="M0 0 C0.95261487 4.76307437 1.08333357 9.1666528 1 14 C0.67 14 0.34 14 0 14 C-0.33 12.35 -0.66 10.7 -1 9 C-1.598125 9.639375 -2.19625 10.27875 -2.8125 10.9375 C-6.2220969 14.15226279 -9.44864113 14.35841991 -14.0546875 14.2734375 C-16 14 -16 14 -18.5625 12.4375 C-20 10 -20 10 -20.0625 6.5 C-18.78906305 2.30514888 -17.79034421 1.14236847 -14 -1 C-8.61506226 -2.39609497 -5.10309953 -1.7704631 0 0 Z " fill="#EF6A3E" transform="translate(307,49)"/>
<path d="M0 0 C0 1.98 0 3.96 0 6 C0.33 6 0.66 6 1 6 C1 8.64 1 11.28 1 14 C0.67 14 0.34 14 0 14 C-0.33 12.35 -0.66 10.7 -1 9 C-1.598125 9.639375 -2.19625 10.27875 -2.8125 10.9375 C-6.2220969 14.15226279 -9.44864113 14.35841991 -14.0546875 14.2734375 C-16 14 -16 14 -18.5625 12.4375 C-20 10 -20 10 -20.0625 6.5 C-19 3 -19 3 -16.9375 0.5625 C-11.51329783 -2.32271392 -5.82302598 -1.1646052 0 0 Z " fill="#0D0D0D" transform="translate(233,48)"/>
<path d="M0 0 C2.3125 1.5625 2.3125 1.5625 4 4 C4.5 7.5 4.5 7.5 4 11 C2.125 13.4375 2.125 13.4375 0 15 C-0.66 15 -1.32 15 -2 15 C-1.83628906 15.64324219 -1.67257813 16.28648438 -1.50390625 16.94921875 C-0.84665324 20.92840171 -0.893647 24.7881437 -0.9375 28.8125 C-0.94201172 29.60076172 -0.94652344 30.38902344 -0.95117188 31.20117188 C-0.96288688 33.13414761 -0.98082002 35.06708393 -1 37 C-2.32 37 -3.64 37 -5 37 C-4.97381592 36.39003174 -4.94763184 35.78006348 -4.9206543 35.15161133 C-4.81634281 32.37217242 -4.75157018 29.59314561 -4.6875 26.8125 C-4.64560547 25.85279297 -4.60371094 24.89308594 -4.56054688 23.90429688 C-4.38516561 17.96622153 -4.38516561 17.96622153 -7.48046875 13.046875 C-8.31191406 12.37140625 -9.14335938 11.6959375 -10 11 C-10.625 7.4375 -10.625 7.4375 -10 4 C-6.98538624 0.64085896 -4.52721473 -0.92865943 0 0 Z " fill="#FCF6F5" transform="translate(47,43)"/>
<path d="M0 0 C0.99 0 1.98 0 3 0 C3.33 2.97 3.66 5.94 4 9 C4.99 8.34 5.98 7.68 7 7 C7.99 7 8.98 7 10 7 C10 4.69 10 2.38 10 0 C10.33 0 10.66 0 11 0 C11.3565352 6.89301389 10.59477289 11.10868163 5.8125 16.4375 C3.34177911 19.93058816 3.34754743 21.79530565 4 26 C5.16216426 28.02675014 6.43962089 29.80019699 7.90625 31.6171875 C9 33 9 33 9 34 C5.75 34.8125 5.75 34.8125 2 35 C-0.375 32.5625 -0.375 32.5625 -2 30 C-2.33 30 -2.66 30 -3 30 C-3.33 24.39 -3.66 18.78 -4 13 C-2.68 12.34 -1.36 11.68 0 11 C1.49297212 8.01405576 1.11755228 5.29146376 1 2 C0.67 1.34 0.34 0.68 0 0 Z " fill="#EA574B" transform="translate(49,45)"/>
<path d="M0 0 C-0.33 0.99 -0.66 1.98 -1 3 C-3.44140625 3.95703125 -3.44140625 3.95703125 -6.5625 4.8125 C-16.24750864 7.86127195 -23.06455832 13.78271074 -29 22 C-30.65612034 25.24854374 -31.88531017 28.53272794 -33 32 C-33.4125 33.19625 -33.825 34.3925 -34.25 35.625 C-34.4975 36.40875 -34.745 37.1925 -35 38 C-35.99 38 -36.98 38 -38 38 C-37.65267989 27.58039681 -33.193709 18.38944331 -26.04296875 10.8125 C-19.57464937 5.07387631 -9.09653677 -2.93042795 0 0 Z " fill="#EB6245" transform="translate(39,3)"/>
<path d="M0 0 C0.66 0.33 1.32 0.66 2 1 C2 1.66 2 2.32 2 3 C1.34 3 0.68 3 0 3 C0 3.99 0 4.98 0 6 C-1.9765625 7.359375 -1.9765625 7.359375 -4.625 8.75 C-12.10870883 13.04150534 -17.07030595 18.83066083 -20 27 C-20.84865988 30.64537995 -21.48225426 34.29403048 -22 38 C-23.65 37.01 -25.3 36.02 -27 35 C-27.33 35.66 -27.66 36.32 -28 37 C-28.495 35.515 -28.495 35.515 -29 34 C-28.34 34 -27.68 34 -27 34 C-26.85304688 33.23816406 -26.70609375 32.47632813 -26.5546875 31.69140625 C-24.12733229 20.51720208 -18.93563767 12.22689292 -10 5 C-6.79207498 3.0197413 -3.57660133 1.21657629 0 0 Z " fill="#FBF2F1" transform="translate(31,7)"/>
<path d="M0 0 C3.3758603 2.39123438 3.4385833 2.79354678 4.125 6.625 C4.21007813 7.3984375 4.29515625 8.171875 4.3828125 8.96875 C4.80148996 11.31661211 4.80148996 11.31661211 7.0703125 12.48828125 C7.70710938 13.02839844 8.34390625 13.56851563 9 14.125 C9.171875 17.26171875 9.171875 17.26171875 8.75 20.8125 C8.62109375 21.99199219 8.4921875 23.17148438 8.359375 24.38671875 C8.24078125 25.29035156 8.1221875 26.19398437 8 27.125 C6.125 26.890625 6.125 26.890625 4 26.125 C2.875 24.234375 2.875 24.234375 2 21.875 C0.4654146 18.05370038 -1.31234417 15.27604477 -4 12.125 C-4.96070434 9.24288698 -5.10581883 7.42649956 -5.0625 4.4375 C-5.05347656 3.62925781 -5.04445313 2.82101563 -5.03515625 1.98828125 C-5.02355469 1.37339844 -5.01195313 0.75851563 -5 0.125 C-3 -0.875 -3 -0.875 0 0 Z " fill="#E84D46" transform="translate(34,44.875)"/>
<path d="M0 0 C12.74353103 3.34256552 21.18979518 10.86665045 28 22 C30.67405219 26.65248946 31.33015836 30.60741344 31 36 C30.01 36 29.02 36 28 36 C27.78085938 35.2265625 27.56171875 34.453125 27.3359375 33.65625 C23.70079341 21.71642712 17.19795222 12.72211195 6.19921875 6.38671875 C3.82218137 5.19315684 1.43943419 4.05929501 -1 3 C-0.67 2.01 -0.34 1.02 0 0 Z " fill="#E64857" transform="translate(57,3)"/>
<path d="M0 0 C2.4375 0.8125 2.4375 0.8125 4.4375 2.8125 C4.73828125 5.4921875 4.73828125 5.4921875 4.75 8.6875 C4.76675781 9.73679687 4.78351563 10.78609375 4.80078125 11.8671875 C4.39803973 15.13242518 3.74625271 16.50374729 1.4375 18.8125 C-1.125 19.1875 -1.125 19.1875 -3.5625 18.8125 C-6.42586371 15.94913629 -5.86266187 13.86021654 -5.875 9.875 C-5.89175781 8.62847656 -5.90851563 7.38195313 -5.92578125 6.09765625 C-5.5625 2.8125 -5.5625 2.8125 -4.203125 0.859375 C-2.5625 -0.1875 -2.5625 -0.1875 0 0 Z " fill="#F5F5F5" transform="translate(161.5625,38.1875)"/>
<path d="M0 0 C1.8871875 0.0309375 1.8871875 0.0309375 3.8125 0.0625 C3.4825 1.3825 3.1525 2.7025 2.8125 4.0625 C1.0490625 4.43375 1.0490625 4.43375 -0.75 4.8125 C-9.15713842 6.97730107 -13.65242182 10.80928202 -18.1875 18.0625 C-19.98439675 21.65629351 -20.63339731 25.09143072 -21.1875 29.0625 C-22.1775 29.0625 -23.1675 29.0625 -24.1875 29.0625 C-24.71208053 20.66921155 -22.12078154 14.47339255 -16.9375 7.890625 C-12.35411141 3.10262085 -6.69520853 -0.10975752 0 0 Z " fill="#F27B31" transform="translate(41.1875,17.9375)"/>
<path d="M0 0 C7.51419479 0.60113558 11.63468362 3.35821062 16.6875 8.75 C22.81337607 16.10918298 23.46683626 22.5941139 23 32 C21.02 32.495 21.02 32.495 19 33 C18.97421875 32.154375 18.9484375 31.30875 18.921875 30.4375 C18.47049968 21.40999359 17.48819632 14.95331009 10.6875 8.6875 C7.34636653 6.03339614 3.99283062 4.46675411 0 3 C0 2.01 0 1.02 0 0 Z " fill="#F48340" transform="translate(50,19)"/>
<path d="M0 0 C0.78375 0.04125 1.5675 0.0825 2.375 0.125 C6.975 10.325 6.975 10.325 5.4375 14.9375 C5.086875 15.659375 4.73625 16.38125 4.375 17.125 C3.385 17.125 2.395 17.125 1.375 17.125 C0.715 17.785 0.055 18.445 -0.625 19.125 C-5.42010703 8.48585627 -5.42010703 8.48585627 -4.625 2.125 C-2.625 0.125 -2.625 0.125 0 0 Z " fill="#ED5C3C" transform="translate(4.625,50.875)"/>
<path d="M0 0 C4.55555556 0.55555556 4.55555556 0.55555556 6 2 C6.13568319 5.66344611 6.16461426 8.50615721 5 12 C4.34 12 3.68 12 3 12 C2.67 13.65 2.34 15.3 2 17 C1.401875 17.144375 0.80375 17.28875 0.1875 17.4375 C-1.56150404 17.8872439 -3.28677023 18.42892341 -5 19 C-4.5359375 17.2984375 -4.5359375 17.2984375 -4.0625 15.5625 C-3.07160601 11.67514666 -2.62226986 7.87957251 -2.34375 3.8828125 C-2 2 -2 2 0 0 Z " fill="#E3324F" transform="translate(82,51)"/>
<path d="M0 0 C7.38804781 -0.36334661 7.38804781 -0.36334661 10 1.1875 C11.39307149 3.71244208 11.48563105 5.15558958 11 8 C9.4375 10.3125 9.4375 10.3125 7 12 C3.25 12.25 3.25 12.25 0 12 C0 8.04 0 4.08 0 0 Z " fill="#FDFBFA" transform="translate(260,25)"/>
<path d="M0 0 C2.74515677 2.38333095 3.89080018 4.68909319 5.1875 8.0625 C5.53167969 8.94035156 5.87585938 9.81820312 6.23046875 10.72265625 C7 13 7 13 7 15 C3.04 15 -0.92 15 -5 15 C-4.43174347 9.45949887 -2.37113483 4.96284034 0 0 Z " fill="#EAEAEA" transform="translate(115,31)"/>
<path d="M0 0 C2.85969789 0.3342504 3.80078762 0.75122281 5.6328125 3.0390625 C10.12254537 10.81969905 12.31585755 16.99805991 12 26 C10.68 25.67 9.36 25.34 8 25 C7.938125 23.72125 7.87625 22.4425 7.8125 21.125 C7.07594591 14.27937963 3.76655396 8.64983094 0 3 C0 2.01 0 1.02 0 0 Z " fill="#ED6645" transform="translate(69,21)"/>
<path d="M0 0 C0.99 0.33 1.98 0.66 3 1 C1.90529545 4.18459506 0.50179761 6.79638907 -1.375 9.5625 C-4.66226834 14.64459734 -6.28080004 20.23731857 -8 26 C-8.99 26 -9.98 26 -11 26 C-10.66276364 15.8829092 -6.47268 7.69420529 0 0 Z " fill="#E5425F" transform="translate(12,15)"/>
<path d="M0 0 C0.77794922 -0.02900391 1.55589844 -0.05800781 2.35742188 -0.08789062 C8.37380547 -0.15312247 12.11172152 1.29902035 17.3125 4.3125 C17.3125 5.3025 17.3125 6.2925 17.3125 7.3125 C14.48178723 6.79782495 11.86090682 6.16196894 9.125 5.25 C2.93271402 3.72730673 -3.48952957 3.65970789 -9.6875 5.3125 C-10.3475 3.9925 -11.0075 2.6725 -11.6875 1.3125 C-7.79179113 0.01393038 -4.06219608 0.04925864 0 0 Z " fill="#ED6634" transform="translate(44.6875,9.6875)"/>
<path d="M0 0 C5.14539068 4.41033487 9.34033783 10.34938172 10.3125 17.203125 C10.3125 19.125 10.3125 19.125 10 22 C9.01 22 8.02 22 7 22 C6.76925781 21.21496094 6.53851563 20.42992188 6.30078125 19.62109375 C4.29364315 13.15541174 2.16213767 8.31828702 -2 3 C-2 2.34 -2 1.68 -2 1 C-1.34 0.67 -0.68 0.34 0 0 Z " fill="#F27F41" transform="translate(78,17)"/>
<path d="M0 0 C0 0.99 0 1.98 0 3 C1.98 2.01 3.96 1.02 6 0 C6.99 0.66 7.98 1.32 9 2 C8.67 2.66 8.34 3.32 8 4 C10.97 4 13.94 4 17 4 C16.67 3.01 16.34 2.02 16 1 C19.68754757 1.49831724 21.60490662 2.10067643 24 5 C12.90494663 7.58954756 2.4219039 6.34731187 -8 2 C-8 1.67 -8 1.34 -8 1 C-5.23735711 0.40267181 -2.83967231 0 0 0 Z " fill="#F3772F" transform="translate(32,88)"/>
<path d="M0 0 C0.4125 0.61875 0.825 1.2375 1.25 1.875 C3.07610938 4.09241854 4.43617863 4.82403235 7 6 C4.79124879 8.19602066 2.59005725 10.26080867 0 12 C-2.9375 11.875 -2.9375 11.875 -5 11 C-4.44271087 7.65626525 -3.64826111 4.96687001 -2 2 C-1.34 2 -0.68 2 0 2 C0 1.34 0 0.68 0 0 Z " fill="#EC593D" transform="translate(69,75)"/>
<path d="M0 0 C-0.3125 3.375 -0.3125 3.375 -1 7 C-4 9 -4 9 -6.6875 8.625 C-7.450625 8.41875 -8.21375 8.2125 -9 8 C-9.33 6.35 -9.66 4.7 -10 3 C-6.68152292 -0.06320961 -4.44849969 -0.3033068 0 0 Z " fill="#E7E7E7" transform="translate(233,48)"/>
<path d="M0 0 C0.36554789 3.28993102 0.26218503 4.63099885 -1.6875 7.375 C-4 9 -4 9 -6.75 8.75 C-7.4925 8.5025 -8.235 8.255 -9 8 C-9.33 6.35 -9.66 4.7 -10 3 C-6.68152292 -0.06320961 -4.44849969 -0.3033068 0 0 Z " fill="#FCEFEB" transform="translate(307,49)"/>
<path d="M0 0 C0 0.99 0 1.98 0 3 C-0.99 3.33 -1.98 3.66 -3 4 C-3.66 4.66 -4.32 5.32 -5 6 C-5.66 6 -6.32 6 -7 6 C-7 6.99 -7 7.98 -7 9 C-5.68 9.33 -4.36 9.66 -3 10 C-3 9.34 -3 8.68 -3 8 C-2.01 8.33 -1.02 8.66 0 9 C-1.4375 11.125 -1.4375 11.125 -4 13 C-7.12820109 12.75232831 -10.01503209 11.94396421 -13 11 C-11.56314642 5.97101246 -9.05763331 4.04322498 -5 1 C-3 0 -3 0 0 0 Z " fill="#E23056" transform="translate(42,34)"/>
<path d="M0 0 C0.33 0.99 0.66 1.98 1 3 C0.26394531 3.38671875 -0.47210938 3.7734375 -1.23046875 4.171875 C-8.48457998 8.02635993 -8.48457998 8.02635993 -15 13 C-15.33 11.68 -15.66 10.36 -16 9 C-6.15533981 -0 -6.15533981 -0 0 0 Z " fill="#E8534D" transform="translate(34,12)"/>
<path d="M0 0 C0.99 0 1.98 0 3 0 C3.33 2.97 3.66 5.94 4 9 C4.99 8.34 5.98 7.68 7 7 C7.99 7 8.98 7 10 7 C10 4.69 10 2.38 10 0 C10.33 0 10.66 0 11 0 C11.28971178 5.60109448 11.15976306 9.14750673 8 14 C5.8125 15.875 5.8125 15.875 4 17 C4 15.68 4 14.36 4 13 C3.01 12.34 2.02 11.68 1 11 C0.7421875 8.90625 0.7421875 8.90625 0.875 6.5 C1.10744652 3.11862842 1.10744652 3.11862842 0 0 Z " fill="#E6475B" transform="translate(49,45)"/>
<path d="M0 0 C2.03144641 0.93446535 4.03533587 1.93224776 6 3 C5.67 4.98 5.34 6.96 5 9 C4.34 9 3.68 9 3 9 C2.34 10.32 1.68 11.64 1 13 C-1.10633718 11.29171079 -1.93801608 10.47851584 -2.29296875 7.73828125 C-2.25816406 6.93777344 -2.22335938 6.13726562 -2.1875 5.3125 C-2.16042969 4.50425781 -2.13335938 3.69601563 -2.10546875 2.86328125 C-2.07066406 2.24839844 -2.03585938 1.63351563 -2 1 C-1.34 0.67 -0.68 0.34 0 0 Z " fill="#E63C47" transform="translate(31,44)"/>
<path d="M0 0 C-0.33 1.32 -0.66 2.64 -1 4 C-2.19625 4.28875 -3.3925 4.5775 -4.625 4.875 C-8.14726836 5.7524334 -11.57201821 6.80020637 -15 8 C-14.875 5.6875 -14.875 5.6875 -14 3 C-9.32125724 -0.30935464 -5.50263621 -0.28461911 0 0 Z " fill="#E84D52" transform="translate(45,18)"/>
<path d="M0 0 C0.66 0 1.32 0 2 0 C2 0.66 2 1.32 2 2 C2.556875 2.12375 3.11375 2.2475 3.6875 2.375 C6.22114364 3.05976855 8.57921032 3.99133763 11 5 C11 5.66 11 6.32 11 7 C13.46326712 8.6446674 13.46326712 8.6446674 16 10 C15.01 10.99 14.02 11.98 13 13 C3.20451393 5.73710755 3.20451393 5.73710755 0 1 C0 0.67 0 0.34 0 0 Z " fill="#F27A37" transform="translate(8,75)"/>
<path d="M0 0 C2.475 0.99 2.475 0.99 5 2 C5.25 4.25 5.25 4.25 5 7 C3 9.3125 3 9.3125 1 11 C-0.32 9.02 -1.64 7.04 -3 5 C-2 3 -2 3 0 0 Z " fill="#E74445" transform="translate(49,56)"/>
<path d="M0 0 C-0.33 0.99 -0.66 1.98 -1 3 C-3.72265625 3.94921875 -3.72265625 3.94921875 -7.0625 4.6875 C-8.16722656 4.93886719 -9.27195312 5.19023437 -10.41015625 5.44921875 C-11.69212891 5.72185547 -11.69212891 5.72185547 -13 6 C-13 5.34 -13 4.68 -13 4 C-13.66 3.67 -14.32 3.34 -15 3 C-13.25531628 2.29911844 -11.50398839 1.61475991 -9.75 0.9375 C-8.77546875 0.55464844 -7.8009375 0.17179688 -6.796875 -0.22265625 C-3.95992605 -1.01113787 -2.70590448 -1.02437812 0 0 Z " fill="#F48342" transform="translate(39,3)"/>
<path d="M0 0 C0.66 0.33 1.32 0.66 2 1 C2 1.66 2 2.32 2 3 C1.34 3 0.68 3 0 3 C0 3.99 0 4.98 0 6 C-3.465 7.485 -3.465 7.485 -7 9 C-8.32 8.01 -9.64 7.02 -11 6 C-9.73168307 5.18357746 -8.46024069 4.37200895 -7.1875 3.5625 C-6.47980469 3.11003906 -5.77210937 2.65757813 -5.04296875 2.19140625 C-3 1 -3 1 0 0 Z " fill="#FBF0EB" transform="translate(31,7)"/>
<path d="M0 0 C0.38344159 2.6074028 0.374232 4.38063153 -1.0078125 6.66796875 C-2.3125 8.3125 -2.3125 8.3125 -5 11 C-5.99 11 -6.98 11 -8 11 C-8.99 11.66 -9.98 12.32 -11 13 C-9.61158138 8.70852427 -5.34262323 0 0 0 Z " fill="#F07141" transform="translate(30,22)"/>
<path d="M0 0 C0.66 0 1.32 0 2 0 C2.33 1.65 2.66 3.3 3 5 C4.65 4.67 6.3 4.34 8 4 C8.99 5.65 9.98 7.3 11 9 C7.75 9.8125 7.75 9.8125 4 10 C1.72493386 7.78480402 0.40949367 5.81898734 -1 3 C-0.67 2.01 -0.34 1.02 0 0 Z " fill="#EA593C" transform="translate(47,70)"/>
<path d="M0 0 C4.34159496 0.50483662 7.49408652 1.31900734 11 4 C11 4.99 11 5.98 11 7 C6.91621717 6.25749403 2.98060777 5.17076699 -1 4 C-0.67 2.68 -0.34 1.36 0 0 Z " fill="#F3823F" transform="translate(51,10)"/>
<path d="M0 0 C1.34173403 0.92543709 2.67320159 1.86577405 4 2.8125 C5.11375 3.59560547 5.11375 3.59560547 6.25 4.39453125 C6.8275 4.92433594 7.405 5.45414063 8 6 C8 6.99 8 7.98 8 9 C7.01 9.33 6.02 9.66 5 10 C2.95703125 8.56640625 2.95703125 8.56640625 0.8125 6.5625 C0.09707031 5.90378906 -0.61835937 5.24507812 -1.35546875 4.56640625 C-1.89816406 4.04949219 -2.44085938 3.53257813 -3 3 C-2.01 2.67 -1.02 2.34 0 2 C0 1.34 0 0.68 0 0 Z " fill="#ED7154" transform="translate(70,9)"/>
<path d="M0 0 C2.3125 2.0625 2.3125 2.0625 4 4 C-1.30905861 5.65364121 -1.30905861 5.65364121 -4 6 C-5.875 4.75 -5.875 4.75 -7 3 C-7.66 2.34 -8.32 1.68 -9 1 C-5.66150976 -1.10201238 -3.73424825 -1.30698689 0 0 Z " fill="#FAF0EA" transform="translate(66,10)"/>
<path d="M0 0 C0.33 0 0.66 0 1 0 C1.1953125 6.0546875 1.1953125 6.0546875 1 8 C-1 10 -1 10 -4 11 C-4.99 10.67 -5.98 10.34 -7 10 C-7.33 10.66 -7.66 11.32 -8 12 C-7.50168276 8.31245243 -6.89932357 6.39509338 -4 4 C-3.01 4.66 -2.02 5.32 -1 6 C-0.67 4.02 -0.34 2.04 0 0 Z " fill="#ED6B4E" transform="translate(42,65)"/>
<path d="M0 0 C0.103125 0.5775 0.20625 1.155 0.3125 1.75 C1.10171967 4.33290075 2.32312568 5.9039071 4 8 C4.33 8.66 4.66 9.32 5 10 C4.34 10 3.68 10 3 10 C2.67 10.66 2.34 11.32 2 12 C-0.88437779 10.70700306 -2.87219421 9.34058637 -5 7 C-4.34 5.68 -3.68 4.36 -3 3 C-3 3.66 -3 4.32 -3 5 C-2.34 5 -1.68 5 -1 5 C-0.67 3.35 -0.34 1.7 0 0 Z " fill="#EF6532" transform="translate(10,63)"/>
<path d="M0 0 C0.78375 0.04125 1.5675 0.0825 2.375 0.125 C3.035 1.775 3.695 3.425 4.375 5.125 C2.065 4.795 -0.245 4.465 -2.625 4.125 C-2.955 5.775 -3.285 7.425 -3.625 9.125 C-3.955 9.125 -4.285 9.125 -4.625 9.125 C-4.75 5.75 -4.75 5.75 -4.625 2.125 C-2.625 0.125 -2.625 0.125 0 0 Z " fill="#EC6351" transform="translate(4.625,50.875)"/>
<path d="M0 0 C0 0.66 0 1.32 0 2 C-0.66 2 -1.32 2 -2 2 C-2.33 3.32 -2.66 4.64 -3 6 C-7.62 6 -12.24 6 -17 6 C-17 5.67 -17 5.34 -17 5 C-16.08476563 4.72285156 -15.16953125 4.44570312 -14.2265625 4.16015625 C-13.03804687 3.79792969 -11.84953125 3.43570313 -10.625 3.0625 C-9.44164062 2.70285156 -8.25828125 2.34320313 -7.0390625 1.97265625 C-0.87550201 0 -0.87550201 0 0 0 Z " fill="#FCF3EE" transform="translate(68,88)"/>
<path d="M0 0 C4.05606165 0.46800711 7.46588679 0.87953208 11 3 C10.67 4.32 10.34 5.64 10 7 C5.05 5.02 5.05 5.02 0 3 C0 2.01 0 1.02 0 0 Z " fill="#E53E55" transform="translate(50,19)"/>
<path d="M0 0 C1.15518918 0.90484792 2.29885406 1.8244206 3.4375 2.75 C4.07558594 3.26046875 4.71367188 3.7709375 5.37109375 4.296875 C7.18810554 6.19667629 7.60423197 7.43586908 8 10 C3.74780225 9.52753358 1.62685275 7.22727623 -1 4 C-0.63671875 1.83203125 -0.63671875 1.83203125 0 0 Z " fill="#EE6841" transform="translate(61,23)"/>
<path d="M0 0 C3.2605096 3.2605096 3.05467405 6.89083745 3.0625 11.3125 C3.041875 12.529375 3.02125 13.74625 3 15 C1.68 14.67 0.36 14.34 -1 14 C-1 12.35 -1 10.7 -1 9 C-0.34 9 0.32 9 1 9 C0.649375 7.88625 0.29875 6.7725 -0.0625 5.625 C-1 2 -1 2 0 0 Z " fill="#F28247" transform="translate(78,32)"/>
<path d="M0 0 C3.68754757 0.49831724 5.60490662 1.10067643 8 4 C3.71702469 5.05619003 -0.42985646 5.11702092 -4.8125 5.0625 C-5.50537109 5.05798828 -6.19824219 5.05347656 -6.91210938 5.04882812 C-8.60811068 5.03713156 -10.30406703 5.01919924 -12 5 C-12 4.67 -12 4.34 -12 4 C-5.565 3.505 -5.565 3.505 1 3 C0.67 2.01 0.34 1.02 0 0 Z " fill="#F48348" transform="translate(48,89)"/>
<path d="M0 0 C0.33 0 0.66 0 1 0 C1 1.65 1 3.3 1 5 C2.65 5.33 4.3 5.66 6 6 C6 5.34 6 4.68 6 4 C6.99 4.33 7.98 4.66 9 5 C7.875 6.5 7.875 6.5 6 8 C2.8125 8.1875 2.8125 8.1875 0 8 C-0.66 6.02 -1.32 4.04 -2 2 C-1.34 1.34 -0.68 0.68 0 0 Z " fill="#E9594B" transform="translate(71,72)"/>
<path d="M0 0 C0.33 0.66 0.66 1.32 1 2 C2.89533342 2.46523063 2.89533342 2.46523063 5.0625 2.625 C6.361875 2.74875 7.66125 2.8725 9 3 C9 2.34 9 1.68 9 1 C9.99 1.33 10.98 1.66 12 2 C10.5625 4.125 10.5625 4.125 8 6 C4.87179891 5.75232831 1.98496791 4.94396421 -1 4 C-0.67 2.68 -0.34 1.36 0 0 Z " fill="#E4415A" transform="translate(30,41)"/>
<path d="M0 0 C0.33 0 0.66 0 1 0 C1.33 1.98 1.66 3.96 2 6 C1.01 6.495 1.01 6.495 0 7 C-1.13350534 9.01669827 -1.13350534 9.01669827 -2 11 C-2.66 11 -3.32 11 -4 11 C-4.66 9.68 -5.32 8.36 -6 7 C-5.34 7 -4.68 7 -4 7 C-3.67 5.35 -3.34 3.7 -3 2 C-2.34 2.33 -1.68 2.66 -1 3 C-0.67 2.01 -0.34 1.02 0 0 Z " fill="#E85152" transform="translate(36,49)"/>
<path d="M0 0 C-0.78375 0.721875 -1.5675 1.44375 -2.375 2.1875 C-4.84412438 4.83299041 -5.93260278 6.60373611 -7 10 C-7.33 10 -7.66 10 -8 10 C-8 8.35 -8 6.7 -8 5 C-8.66 4.67 -9.32 4.34 -10 4 C-6.58908673 0.88145073 -4.68377325 -0.53528837 0 0 Z " fill="#F7CDCB" transform="translate(47,43)"/>
<path d="M0 0 C1.98 0.99 1.98 0.99 4 2 C4 4.31 4 6.62 4 9 C3.01 9 2.02 9 1 9 C0.67 6.03 0.34 3.06 0 0 Z " fill="#F48035" transform="translate(84,30)"/>
<path d="M0 0 C0.99 0.33 1.98 0.66 3 1 C1.8141763 4.37503669 0.72426311 6.64722731 -2 9 C-2.66 7.68 -3.32 6.36 -4 5 C-2.68 3.35 -1.36 1.7 0 0 Z " fill="#E84E54" transform="translate(12,15)"/>
<path d="M0 0 C0.66 0.33 1.32 0.66 2 1 C0.68 3.97 -0.64 6.94 -2 10 C-2.99 9.67 -3.98 9.34 -5 9 C-4.67 7.02 -4.34 5.04 -4 3 C-3.67 3.66 -3.34 4.32 -3 5 C-2.34 5 -1.68 5 -1 5 C-0.67 3.35 -0.34 1.7 0 0 Z " fill="#E64855" transform="translate(85,63)"/>
<path d="M0 0 C0.66 0.33 1.32 0.66 2 1 C1.125 5.75 1.125 5.75 0 8 C-0.99 8 -1.98 8 -3 8 C-2.25 2.25 -2.25 2.25 0 0 Z " fill="#E33F52" transform="translate(8,21)"/>
<path d="M0 0 C3.125 -0.1875 3.125 -0.1875 6 0 C4.02 2.31 2.04 4.62 0 7 C-0.66 5.68 -1.32 4.36 -2 3 C-1.34 2.01 -0.68 1.02 0 0 Z " fill="#ED635C" transform="translate(15,12)"/>
<path d="M0 0 C-0.99 0.495 -0.99 0.495 -2 1 C-2 1.99 -2 2.98 -2 4 C-3.65 4.33 -5.3 4.66 -7 5 C-7.66 3.68 -8.32 2.36 -9 1 C-5.8035914 -0.06546953 -3.34252724 -0.07427838 0 0 Z " fill="#ED664E" transform="translate(42,10)"/>
<path d="M0 0 C0.66 0.66 1.32 1.32 2 2 C2.66 1.67 3.32 1.34 4 1 C4 2.98 4 4.96 4 7 C2.68 7 1.36 7 0 7 C0 4.69 0 2.38 0 0 Z " fill="#F9EBE3" transform="translate(42,73)"/>
<path d="M0 0 C1.32 0.33 2.64 0.66 4 1 C4.66 3.31 5.32 5.62 6 8 C2.83884224 6.63016497 2.0072908 6.0109362 0 3 C0 2.01 0 1.02 0 0 Z " fill="#E84854" transform="translate(69,21)"/>
<path d="M0 0 C1.32 0.99 2.64 1.98 4 3 C3.67 4.32 3.34 5.64 3 7 C2.34 7 1.68 7 1 7 C-2 3.53846154 -2 3.53846154 -2 1 C-1.34 0.67 -0.68 0.34 0 0 Z " fill="#F06F3E" transform="translate(78,17)"/>
<path d="M0 0 C0.66 1.65 1.32 3.3 2 5 C-1.3 4.01 -4.6 3.02 -8 2 C-8 1.67 -8 1.34 -8 1 C-5.23735711 0.40267181 -2.83967231 0 0 0 Z " fill="#F48841" transform="translate(32,88)"/>
<path d="M0 0 C1.32 0 2.64 0 4 0 C2.63016497 3.16115776 2.0109362 3.9927092 -1 6 C-1.625 4.125 -1.625 4.125 -2 2 C-1.34 1.34 -0.68 0.68 0 0 Z " fill="#E53F4B" transform="translate(20,19)"/>
<path d="M0 0 C1.98 0 3.96 0 6 0 C5.34 1.32 4.68 2.64 4 4 C2.35 3.67 0.7 3.34 -1 3 C-0.67 2.01 -0.34 1.02 0 0 Z " fill="#FCF9F9" transform="translate(33,15)"/>
<path d="M0 0 C1.4540625 0.0309375 1.4540625 0.0309375 2.9375 0.0625 C2.9375 1.7125 2.9375 3.3625 2.9375 5.0625 C0.02232708 3.98848892 -1.84060176 3.28439824 -4.0625 1.0625 C-3.0625 0.0625 -3.0625 0.0625 0 0 Z " fill="#F9F3F2" transform="translate(60.0625,-0.0625)"/>
<path d="M0 0 C0.66 1.32 1.32 2.64 2 4 C2.66 3.67 3.32 3.34 4 3 C3.67 4.98 3.34 6.96 3 9 C2.01 9 1.02 9 0 9 C0 6.03 0 3.06 0 0 Z " fill="#E65575" transform="translate(9,37)"/>
<path d="M0 0 C0 0.99 0 1.98 0 3 C-2.31 4.32 -4.62 5.64 -7 7 C-7 6.01 -7 5.02 -7 4 C-4.69 2.68 -2.38 1.36 0 0 Z " fill="#FCFCFB" transform="translate(26,22)"/>
<path d="M0 0 C0.99 1.32 1.98 2.64 3 4 C1.68 5.32 0.36 6.64 -1 8 C-1 7.01 -1 6.02 -1 5 C-1.66 4.67 -2.32 4.34 -3 4 C-2.01 2.68 -1.02 1.36 0 0 Z " fill="#E74A5F" transform="translate(17,22)"/>
<path d="M0 0 C2.475 0.99 2.475 0.99 5 2 C4.67 3.32 4.34 4.64 4 6 C1.525 5.01 1.525 5.01 -1 4 C-0.67 2.68 -0.34 1.36 0 0 Z " fill="#E8544E" transform="translate(56,20)"/>
<path d="M0 0 C1.22589844 0.15275391 1.22589844 0.15275391 2.4765625 0.30859375 C3.41628906 0.43427734 3.41628906 0.43427734 4.375 0.5625 C1.36612219 2.14408962 -1.26172037 3.00195339 -4.625 3.5625 C-4.625 2.9025 -4.625 2.2425 -4.625 1.5625 C-5.285 1.2325 -5.945 0.9025 -6.625 0.5625 C-4.10446405 -0.69776798 -2.7707902 -0.35624445 0 0 Z " fill="#F17A4C" transform="translate(30.625,5.4375)"/>
<path d="M0 0 C2.3828125 0.0234375 2.3828125 0.0234375 5.125 0.375 C6.03507812 0.48585938 6.94515625 0.59671875 7.8828125 0.7109375 C8.93082031 0.85402344 8.93082031 0.85402344 10 1 C5.61991557 3.58464442 2.88874887 2.81479148 -2 2 C-1.34 1.34 -0.68 0.68 0 0 Z " fill="#F07948" transform="translate(18,76)"/>
<path d="M0 0 C1.32 1.32 2.64 2.64 4 4 C3.34 4.66 2.68 5.32 2 6 C1.01 6 0.02 6 -1 6 C-1.042721 4.33388095 -1.04063832 2.66617115 -1 1 C-0.67 0.67 -0.34 0.34 0 0 Z " fill="#EF6142" transform="translate(47,74)"/>
<path d="M0 0 C0.33 0 0.66 0 1 0 C1 2.31 1 4.62 1 7 C-0.32 6.67 -1.64 6.34 -3 6 C-3.33 4.35 -3.66 2.7 -4 1 C-3.34 1 -2.68 1 -2 1 C-1.67 1.66 -1.34 2.32 -1 3 C-0.67 2.01 -0.34 1.02 0 0 Z " fill="#EB533A" transform="translate(41,65)"/>
<path d="M0 0 C0.99 0.33 1.98 0.66 3 1 C4.1875 4.5625 4.1875 4.5625 5 8 C4.34 8.66 3.68 9.32 3 10 C2.01 6.7 1.02 3.4 0 0 Z " fill="#EC6840" transform="translate(1,60)"/>
<path d="M0 0 C0.99 0.66 1.98 1.32 3 2 C2.34 3.32 1.68 4.64 1 6 C0.01 6 -0.98 6 -2 6 C-1.125 1.125 -1.125 1.125 0 0 Z " fill="#FBF2EB" transform="translate(82,33)"/>
<path d="M0 0 C2.475 0.99 2.475 0.99 5 2 C1.25 5 1.25 5 -1 5 C-0.67 3.35 -0.34 1.7 0 0 Z " fill="#EA5E48" transform="translate(31,21)"/>
<path d="M0 0 C0.99 0.66 1.98 1.32 3 2 C2.67 3.32 2.34 4.64 2 6 C0.35 4.68 -1.3 3.36 -3 2 C-2.01 2 -1.02 2 0 2 C0 1.34 0 0.68 0 0 Z " fill="#EC5C4F" transform="translate(70,9)"/>
</svg>
